<?xml version="1.0" encoding="UTF-8" standalone="no"?>
<svg
   xmlns:dc="http://purl.org/dc/elements/1.1/"
   xmlns:cc="http://creativecommons.org/ns#"
   xmlns:rdf="http://www.w3.org/1999/02/22-rdf-syntax-ns#"
   xmlns:svg="http://www.w3.org/2000/svg"
   xmlns="http://www.w3.org/2000/svg"
   xmlns:sodipodi="http://sodipodi.sourceforge.net/DTD/sodipodi-0.dtd"
   xmlns:inkscape="http://www.inkscape.org/namespaces/inkscape"
   version="1.1"
   id="svg10"
   xml:space="preserve"
   width="793.70074"
   height="1122.5197"
   viewBox="0 0 793.70074 1122.5197"
   sodipodi:docname="logo prostokąt.svg"
   inkscape:version="1.0.2-2 (e86c870879, 2021-01-15)"><metadata
     id="metadata16"><rdf:RDF><cc:Work
         rdf:about=""><dc:format>image/svg+xml</dc:format><dc:type
           rdf:resource="http://purl.org/dc/dcmitype/StillImage" /><dc:title></dc:title></cc:Work></rdf:RDF></metadata><defs
     id="defs14" /><sodipodi:namedview
     pagecolor="#ffffff"
     bordercolor="#666666"
     borderopacity="1"
     objecttolerance="10"
     gridtolerance="10"
     guidetolerance="10"
     inkscape:pageopacity="0"
     inkscape:pageshadow="2"
     inkscape:window-width="1920"
     inkscape:window-height="1017"
     id="namedview12"
     showgrid="false"
     inkscape:zoom="1.0708779"
     inkscape:cx="118.80815"
     inkscape:cy="501.71889"
     inkscape:window-x="-8"
     inkscape:window-y="-8"
     inkscape:window-maximized="1"
     inkscape:current-layer="g18" /><g
     id="g18"
     inkscape:groupmode="layer"
     inkscape:label="logo Grzegorz Faber (1)"
     transform="matrix(1.3333333,0,0,1.3333333,0,3.3396326e-5)"><g
       id="g20"
       transform="translate(-98.62228,-33.582985)"><path
         d="m 98.62228,33.58296 h 405.02 v 226.98 h -405.02 z"
         style="fill:#b13994;fill-opacity:0.0220995;fill-rule:nonzero;stroke:none"
         id="path22" /><path
         d="m 211.98896,40.1818 -86.398,49.879 v 99.765 l 86.398,49.879 86.399,-49.879 v -99.765 z m -0.047,13.156 75.028,43.316 v 86.633 l -75.028,43.317 -75.023,-43.317 v -86.633 z"
         style="fill:#000000;fill-opacity:1;fill-rule:nonzero;stroke:none"
         id="path28" /><path
         d="m 211.90696,66.2868 -63.84,36.856 63.84,36.859 63.84,-36.859 z"
         style="fill:#00a7b0;fill-opacity:1;fill-rule:nonzero;stroke:none"
         id="path30" /><path
         d="m 275.74696,103.1428 -63.84,36.859 v 73.715 l 63.84,-36.856 z"
         style="fill:#00d700;fill-opacity:1;fill-rule:nonzero;stroke:none"
         id="path32" /><path
         d="m 148.06696,103.1428 63.84,36.859 v 73.715 l -63.84,-36.856 z"
         style="fill:#ff6100;fill-opacity:1;fill-rule:nonzero;stroke:none"
         id="path34" /><path
         d="m 211.90696,66.2868 -63.84,36.856 v 73.718 l 58.742,33.914 0.243,0.137 2.293,1.324 v 0.004 h 0.004 l 2.558,1.477 63.84,-36.856 v -5.879 0.004 -67.843 z m 0,5.875 53.895,31.117 -48.805,28.176 -5.09,2.942 h -0.004 l -53.894,-31.118 z m -58.75,39.801 53.652,30.973 v 61.964 l -53.652,-30.976 z m 117.496,0 v 61.961 l -53.656,30.976 v -61.96 z"
         style="fill:#1a1a1a;fill-opacity:1;fill-rule:nonzero;stroke:none"
         id="path36" /><path
         d="m 211.98896,40.1818 -86.398,49.879 11.375,6.57 74.976,-43.293 75.028,43.316 11.418,6.594 v -13.187 z"
         style="fill:#00a7b0;fill-opacity:1;fill-rule:nonzero;stroke:none"
         id="path38" /><path
         d="m 286.96996,96.6538 v 86.633 l -75.028,43.317 -11.324,6.539 11.371,6.562 86.399,-49.879 v -86.578 z"
         style="fill:#00d700;fill-opacity:1;fill-rule:nonzero;stroke:none"
         id="path40" /><path
         d="m 125.59096,90.0608 v 99.765 l 75.027,43.317 11.324,-6.539 -75.023,-43.317 v -86.633 l 0.047,-0.023 z"
         style="fill:#ff6100;fill-opacity:1;fill-rule:nonzero;stroke:none"
         id="path42" /><path
         d="m 211.94196,226.6038 -11.324,6.539 11.371,6.562 11.324,-6.535 z"
         style="fill:#000000;fill-opacity:1;fill-rule:nonzero;stroke:none"
         id="path44" /><path
         d="m 298.38796,90.0608 -11.325,-6.536 v 13.129 l 11.325,6.539 z"
         style="fill:#000000;fill-opacity:1;fill-rule:nonzero;stroke:none"
         id="path46" /><path
         d="m 125.63796,90.0368 11.328,-6.539 v 13.133 l -11.328,6.535 z"
         style="fill:#000000;fill-opacity:1;fill-rule:nonzero;stroke:none"
         id="path48" /><path
         d="m 211.98896,40.1818 -11.324,6.535 11.371,6.566 11.324,-6.539 z"
         style="fill:#000000;fill-opacity:1;fill-rule:nonzero;stroke:none"
         id="path50" /><path
         d="m 136.91896,183.2868 -11.324,-6.539 v 13.129 l 11.324,6.539 z"
         style="fill:#000000;fill-opacity:1;fill-rule:nonzero;stroke:none"
         id="path52" /><path
         d="m 286.96996,183.2868 11.328,-6.539 v 13.129 l -11.328,6.539 z"
         style="fill:#000000;fill-opacity:1;fill-rule:nonzero;stroke:none"
         id="path54" /><text
         style="font-variant:normal;font-weight:bold;font-size:30px;font-family:Verdana;-inkscape-font-specification:Verdana-Bold;writing-mode:lr-tb;fill:#000000;fill-opacity:1;fill-rule:nonzero;stroke:none"
         id="text58"
         x="321.32599"
         y="145.31441"><tspan
           sodipodi:role="line"
           id="tspan56"
           x="321.32599"
           y="145.31441">XYZ</tspan></text><text
         style="font-variant:normal;font-weight:normal;font-size:30px;font-family:Verdana;-inkscape-font-specification:Verdana;writing-mode:lr-tb;fill:#000000;fill-opacity:1;fill-rule:nonzero;stroke:none"
         id="text62"
         x="401.24597"
         y="145.31441"><tspan
           x="401.24597 417.92596 436.10596 454.79596"
           y="145.31441"
           sodipodi:role="line"
           id="tspan60">Logo</tspan></text></g></g></svg>
